<svg
  xmlns="http://www.w3.org/2000/svg"
  width="24" height="24" viewBox="0 0 24 24"
  fill="none" stroke="currentColor" stroke-width="2"
  stroke-linecap="round" stroke-linejoin="round" role="img"
  aria-labelledby="title desc">
  <title id="title">Video Director Icon</title>
  <desc id="desc">A clapperboard with a play symbol, representing a video director.</desc>

  <!-- Clapperboard bottom (slate) - larger and more prominent -->
  <rect x="3" y="6" width="18" height="12" rx="2" ry="2" />

  <!-- Play triangle on the slate - larger and centered -->
  <path d="M9 12l6 3.5V8.5L9 12z" fill="currentColor" stroke="none"/>

  <!-- Top clapper, slightly open - simplified and larger -->
  <path d="M3 6h18l-2 -3H5l-2 3z"/>

  <!-- Hinge detail - simplified -->
  <circle cx="6" cy="6" r="1" fill="currentColor" stroke="none"/>

  <!-- Diagonal stripes on clapper top - simplified -->
  <path d="M6 4l1 -1.5M9 4l1 -1.5M12 4l1 -1.5M15 4l1 -1.5M18 4l1 -1.5" />

  <!-- Director star - simplified and positioned better -->
  <path d="M20 4l.5 1.5h1.5l-1.2.9.5 1.5-1.3-.9-1.3.9.5-1.5-1.2-.9h1.5L20 4z" fill="currentColor" stroke="none"/>
</svg>